<mxfile host="Electron" agent="Mozilla/5.0 (Windows NT 10.0; Win64; x64) AppleWebKit/537.36 (KHTML, like Gecko) draw.io/26.2.15 Chrome/134.0.6998.205 Electron/35.2.1 Safari/537.36" version="26.2.15">
  <diagram name="Page-1" id="1jRxc-TqemJTofgT7No7">
    <mxGraphModel dx="2742" dy="634" grid="1" gridSize="10" guides="1" tooltips="1" connect="1" arrows="1" fold="1" page="1" pageScale="1" pageWidth="850" pageHeight="1100" math="0" shadow="0">
      <root>
        <mxCell id="0" />
        <mxCell id="1" parent="0" />
        <mxCell id="PZYcjQ5eOafzSe-c74F2-3" style="edgeStyle=orthogonalEdgeStyle;rounded=0;orthogonalLoop=1;jettySize=auto;html=1;strokeColor=#457B9D;" parent="1" target="PZYcjQ5eOafzSe-c74F2-1" edge="1">
          <mxGeometry relative="1" as="geometry">
            <mxPoint x="10" y="210" as="sourcePoint" />
            <Array as="points">
              <mxPoint x="10" y="250" />
              <mxPoint x="400" y="250" />
            </Array>
          </mxGeometry>
        </mxCell>
        <mxCell id="PZYcjQ5eOafzSe-c74F2-50" style="edgeStyle=orthogonalEdgeStyle;rounded=0;orthogonalLoop=1;jettySize=auto;html=1;exitX=0.5;exitY=1;exitDx=0;exitDy=0;entryX=0.5;entryY=0;entryDx=0;entryDy=0;strokeColor=#4880A4;" parent="1" source="J3J6T2Nlb2btmMFrzNH1-2" target="PZYcjQ5eOafzSe-c74F2-16" edge="1">
          <mxGeometry relative="1" as="geometry" />
        </mxCell>
        <mxCell id="PZYcjQ5eOafzSe-c74F2-51" style="edgeStyle=orthogonalEdgeStyle;rounded=0;orthogonalLoop=1;jettySize=auto;html=1;strokeColor=#4880A4;" parent="1" edge="1">
          <mxGeometry relative="1" as="geometry">
            <mxPoint x="-40" y="210" as="sourcePoint" />
            <mxPoint x="-330" y="292" as="targetPoint" />
            <Array as="points">
              <mxPoint x="-40" y="212" />
              <mxPoint x="-40" y="262" />
              <mxPoint x="-330" y="262" />
            </Array>
          </mxGeometry>
        </mxCell>
        <mxCell id="J3J6T2Nlb2btmMFrzNH1-2" value="1" style="swimlane;whiteSpace=wrap;html=1;rounded=1;labelBackgroundColor=none;fillColor=#A8DADC;strokeColor=#457B9D;fontColor=#1D3557;gradientColor=#FFFFFF;" parent="1" vertex="1">
          <mxGeometry x="-100" y="110" width="160" height="100" as="geometry" />
        </mxCell>
        <mxCell id="kPvUlYXXvgPYuYJNT18Q-10" style="edgeStyle=orthogonalEdgeStyle;rounded=0;orthogonalLoop=1;jettySize=auto;html=1;entryX=0.5;entryY=0;entryDx=0;entryDy=0;strokeColor=#457B9D;" parent="J3J6T2Nlb2btmMFrzNH1-2" edge="1">
          <mxGeometry relative="1" as="geometry">
            <Array as="points">
              <mxPoint x="1060" y="110" />
            </Array>
            <mxPoint x="140" y="100" as="sourcePoint" />
            <mxPoint x="1060" y="212.5" as="targetPoint" />
          </mxGeometry>
        </mxCell>
        <mxCell id="J3J6T2Nlb2btmMFrzNH1-3" value="&lt;font style=&quot;font-size: 16px;&quot;&gt;Login&lt;/font&gt;" style="text;html=1;align=center;verticalAlign=middle;resizable=0;points=[];autosize=1;strokeColor=none;fillColor=none;labelBackgroundColor=none;fontColor=#1D3557;" parent="1" vertex="1">
          <mxGeometry x="-50" y="152" width="60" height="30" as="geometry" />
        </mxCell>
        <mxCell id="J3J6T2Nlb2btmMFrzNH1-4" value="&lt;font style=&quot;font-size: 14px;&quot;&gt;&lt;span style=&quot;white-space: pre;&quot;&gt;&#x9;&lt;/span&gt;User Credential Database&lt;/font&gt;" style="html=1;dashed=0;whiteSpace=wrap;shape=mxgraph.dfd.dataStoreID;align=left;spacingLeft=3;points=[[0,0],[0.5,0],[1,0],[0,0.5],[1,0.5],[0,1],[0.5,1],[1,1]];labelBackgroundColor=none;fillColor=#A8DADC;strokeColor=#457B9D;fontColor=#1D3557;gradientColor=#FFFFFF;gradientDirection=east;" parent="1" vertex="1">
          <mxGeometry x="200" y="145" width="212" height="30" as="geometry" />
        </mxCell>
        <mxCell id="J3J6T2Nlb2btmMFrzNH1-5" value="&lt;span style=&quot;font-size: 16px;&quot;&gt;Admin&lt;/span&gt;" style="rounded=0;whiteSpace=wrap;html=1;labelBackgroundColor=none;fillColor=#A8DADC;strokeColor=#457B9D;fontColor=#1D3557;gradientColor=#FFFFFF;gradientDirection=radial;glass=0;" parent="1" vertex="1">
          <mxGeometry x="-380" y="130" width="120" height="60" as="geometry" />
        </mxCell>
        <mxCell id="J3J6T2Nlb2btmMFrzNH1-6" value="" style="endArrow=classic;html=1;rounded=0;entryX=0.5;entryY=0;entryDx=0;entryDy=0;labelBackgroundColor=none;strokeColor=#457B9D;fontColor=default;exitX=0.25;exitY=1;exitDx=0;exitDy=0;" parent="1" source="J3J6T2Nlb2btmMFrzNH1-2" target="J3J6T2Nlb2btmMFrzNH1-28" edge="1">
          <mxGeometry width="50" height="50" relative="1" as="geometry">
            <mxPoint x="-100" y="200" as="sourcePoint" />
            <mxPoint x="460" y="370" as="targetPoint" />
            <Array as="points">
              <mxPoint x="-60" y="240" />
              <mxPoint x="-960" y="240" />
            </Array>
          </mxGeometry>
        </mxCell>
        <mxCell id="J3J6T2Nlb2btmMFrzNH1-7" value="" style="endArrow=classic;html=1;rounded=0;dashed=1;entryX=1;entryY=0.75;entryDx=0;entryDy=0;labelBackgroundColor=none;strokeColor=#457B9D;fontColor=default;" parent="1" target="J3J6T2Nlb2btmMFrzNH1-5" edge="1">
          <mxGeometry width="50" height="50" relative="1" as="geometry">
            <mxPoint x="-100" y="175" as="sourcePoint" />
            <mxPoint x="-100" y="210" as="targetPoint" />
          </mxGeometry>
        </mxCell>
        <mxCell id="J3J6T2Nlb2btmMFrzNH1-11" value="Invalid Crendentials" style="edgeLabel;html=1;align=center;verticalAlign=middle;resizable=0;points=[];labelBackgroundColor=none;fontColor=#1D3557;" parent="J3J6T2Nlb2btmMFrzNH1-7" vertex="1" connectable="0">
          <mxGeometry relative="1" as="geometry">
            <mxPoint y="8" as="offset" />
          </mxGeometry>
        </mxCell>
        <mxCell id="J3J6T2Nlb2btmMFrzNH1-8" value="" style="endArrow=classic;html=1;rounded=0;exitX=1;exitY=0.5;exitDx=0;exitDy=0;entryX=0;entryY=0.5;entryDx=0;entryDy=0;labelBackgroundColor=none;strokeColor=#457B9D;fontColor=default;" parent="1" source="J3J6T2Nlb2btmMFrzNH1-5" edge="1">
          <mxGeometry width="50" height="50" relative="1" as="geometry">
            <mxPoint x="-230" y="192" as="sourcePoint" />
            <mxPoint x="-100" y="160" as="targetPoint" />
          </mxGeometry>
        </mxCell>
        <mxCell id="J3J6T2Nlb2btmMFrzNH1-9" value="User Credentials" style="edgeLabel;html=1;align=center;verticalAlign=middle;resizable=0;points=[];rotation=0;labelBackgroundColor=none;fontColor=#1D3557;" parent="J3J6T2Nlb2btmMFrzNH1-8" vertex="1" connectable="0">
          <mxGeometry relative="1" as="geometry">
            <mxPoint y="-9" as="offset" />
          </mxGeometry>
        </mxCell>
        <mxCell id="J3J6T2Nlb2btmMFrzNH1-10" value="" style="endArrow=classic;html=1;rounded=0;entryX=0;entryY=0.5;entryDx=0;entryDy=0;exitX=1;exitY=0.5;exitDx=0;exitDy=0;labelBackgroundColor=none;strokeColor=#457B9D;fontColor=default;" parent="1" target="J3J6T2Nlb2btmMFrzNH1-4" edge="1">
          <mxGeometry width="50" height="50" relative="1" as="geometry">
            <mxPoint x="60" y="160" as="sourcePoint" />
            <mxPoint x="40" y="250" as="targetPoint" />
            <Array as="points" />
          </mxGeometry>
        </mxCell>
        <mxCell id="J3J6T2Nlb2btmMFrzNH1-12" value="Validate Credentials" style="edgeLabel;html=1;align=center;verticalAlign=middle;resizable=0;points=[];rotation=0;labelBackgroundColor=none;fontColor=#1D3557;" parent="J3J6T2Nlb2btmMFrzNH1-10" vertex="1" connectable="0">
          <mxGeometry y="11" relative="1" as="geometry">
            <mxPoint as="offset" />
          </mxGeometry>
        </mxCell>
        <mxCell id="J3J6T2Nlb2btmMFrzNH1-13" value="7" style="swimlane;whiteSpace=wrap;html=1;rounded=1;startSize=23;labelBackgroundColor=none;fillColor=#A8DADC;strokeColor=#457B9D;fontColor=#1D3557;gradientColor=#ffffff;gradientDirection=south;glass=0;" parent="1" vertex="1">
          <mxGeometry x="505" y="297.5" width="160" height="85" as="geometry" />
        </mxCell>
        <mxCell id="J3J6T2Nlb2btmMFrzNH1-14" value="&lt;font style=&quot;font-size: 14px;&quot;&gt;Check Statistics&lt;/font&gt;" style="text;html=1;align=center;verticalAlign=middle;resizable=0;points=[];autosize=1;strokeColor=none;fillColor=none;labelBackgroundColor=none;fontColor=#1D3557;" parent="J3J6T2Nlb2btmMFrzNH1-13" vertex="1">
          <mxGeometry x="22" y="32.5" width="120" height="30" as="geometry" />
        </mxCell>
        <mxCell id="J3J6T2Nlb2btmMFrzNH1-15" value="&lt;font style=&quot;font-size: 14px;&quot;&gt;&lt;span style=&quot;white-space: pre;&quot;&gt;&#x9;&lt;/span&gt;Network Logs Database&lt;/font&gt;" style="html=1;dashed=0;whiteSpace=wrap;shape=mxgraph.dfd.dataStoreID;align=left;spacingLeft=3;points=[[0,0],[0.5,0],[1,0],[0,0.5],[1,0.5],[0,1],[0.5,1],[1,1]];labelBackgroundColor=none;fillColor=#A8DADC;strokeColor=#457B9D;fontColor=#1D3557;gradientColor=#FFFFFF;gradientDirection=east;" parent="1" vertex="1">
          <mxGeometry x="321" y="675" width="208" height="35" as="geometry" />
        </mxCell>
        <mxCell id="J3J6T2Nlb2btmMFrzNH1-16" value="" style="endArrow=classic;html=1;rounded=0;entryX=0.946;entryY=-0.051;entryDx=0;entryDy=0;exitX=0.5;exitY=1;exitDx=0;exitDy=0;entryPerimeter=0;labelBackgroundColor=none;strokeColor=#457B9D;fontColor=default;" parent="1" source="J3J6T2Nlb2btmMFrzNH1-13" target="J3J6T2Nlb2btmMFrzNH1-15" edge="1">
          <mxGeometry width="50" height="50" relative="1" as="geometry">
            <mxPoint x="627" y="340" as="sourcePoint" />
            <mxPoint x="795" y="349.5" as="targetPoint" />
            <Array as="points">
              <mxPoint x="585" y="480" />
              <mxPoint x="517" y="480" />
            </Array>
          </mxGeometry>
        </mxCell>
        <mxCell id="J3J6T2Nlb2btmMFrzNH1-17" value="Read Logs" style="edgeLabel;html=1;align=center;verticalAlign=middle;resizable=0;points=[];rotation=0;labelBackgroundColor=none;fontColor=#1D3557;" parent="J3J6T2Nlb2btmMFrzNH1-16" vertex="1" connectable="0">
          <mxGeometry relative="1" as="geometry">
            <mxPoint y="-9" as="offset" />
          </mxGeometry>
        </mxCell>
        <mxCell id="J3J6T2Nlb2btmMFrzNH1-23" value="2.2" style="swimlane;whiteSpace=wrap;html=1;rounded=1;startSize=23;labelBackgroundColor=none;fillColor=#A8DADC;strokeColor=#457B9D;fontColor=#1D3557;gradientColor=#FFFFFF;" parent="1" vertex="1">
          <mxGeometry x="-620" y="432.5" width="120" height="85" as="geometry" />
        </mxCell>
        <mxCell id="J3J6T2Nlb2btmMFrzNH1-42" value="&lt;font style=&quot;font-size: 14px;&quot;&gt;Remove IP&lt;/font&gt;" style="text;html=1;align=center;verticalAlign=middle;resizable=0;points=[];autosize=1;strokeColor=none;fillColor=none;labelBackgroundColor=none;fontColor=#1D3557;" parent="J3J6T2Nlb2btmMFrzNH1-23" vertex="1">
          <mxGeometry x="15" y="38" width="90" height="30" as="geometry" />
        </mxCell>
        <mxCell id="J3J6T2Nlb2btmMFrzNH1-24" value="2.1" style="swimlane;whiteSpace=wrap;html=1;rounded=1;startSize=23;labelBackgroundColor=none;fillColor=#b0e3e6;strokeColor=#0e8088;gradientColor=#FFFFFF;" parent="1" vertex="1">
          <mxGeometry x="-800" y="432.5" width="120" height="85" as="geometry" />
        </mxCell>
        <mxCell id="J3J6T2Nlb2btmMFrzNH1-44" value="&lt;font style=&quot;font-size: 14px;&quot;&gt;Add IP&lt;/font&gt;" style="text;html=1;align=center;verticalAlign=middle;resizable=0;points=[];autosize=1;strokeColor=none;fillColor=none;labelBackgroundColor=none;fontColor=#1D3557;" parent="J3J6T2Nlb2btmMFrzNH1-24" vertex="1">
          <mxGeometry x="26" y="39" width="70" height="30" as="geometry" />
        </mxCell>
        <mxCell id="J3J6T2Nlb2btmMFrzNH1-25" value="2" style="swimlane;whiteSpace=wrap;html=1;rounded=1;startSize=23;labelBackgroundColor=none;fillColor=#A8DADC;strokeColor=#457B9D;fontColor=#1D3557;gradientColor=#FFFFFF;" parent="1" vertex="1">
          <mxGeometry x="-730" y="305" width="160" height="85" as="geometry" />
        </mxCell>
        <mxCell id="J3J6T2Nlb2btmMFrzNH1-40" value="&lt;font style=&quot;font-size: 14px;&quot;&gt;Check Whitelisted IP&#39;s&lt;/font&gt;" style="text;html=1;align=center;verticalAlign=middle;resizable=0;points=[];autosize=1;strokeColor=none;fillColor=none;labelBackgroundColor=none;fontColor=#1D3557;" parent="J3J6T2Nlb2btmMFrzNH1-25" vertex="1">
          <mxGeometry y="40" width="160" height="30" as="geometry" />
        </mxCell>
        <mxCell id="J3J6T2Nlb2btmMFrzNH1-26" value="1.2" style="swimlane;whiteSpace=wrap;html=1;rounded=1;startSize=23;movable=1;resizable=1;rotatable=1;deletable=1;editable=1;locked=0;connectable=1;labelBackgroundColor=none;fillColor=#A8DADC;strokeColor=#457B9D;fontColor=#1D3557;gradientColor=#FFFFFF;" parent="1" vertex="1">
          <mxGeometry x="-930" y="432.5" width="120" height="85" as="geometry" />
        </mxCell>
        <mxCell id="J3J6T2Nlb2btmMFrzNH1-43" value="&lt;font style=&quot;font-size: 14px;&quot;&gt;Remove IP&lt;/font&gt;" style="text;html=1;align=center;verticalAlign=middle;resizable=1;points=[];autosize=1;strokeColor=none;fillColor=none;movable=1;rotatable=1;deletable=1;editable=1;locked=0;connectable=1;labelBackgroundColor=none;fontColor=#1D3557;" parent="J3J6T2Nlb2btmMFrzNH1-26" vertex="1">
          <mxGeometry x="15" y="39" width="90" height="30" as="geometry" />
        </mxCell>
        <mxCell id="J3J6T2Nlb2btmMFrzNH1-27" value="1.1" style="swimlane;whiteSpace=wrap;html=1;rounded=1;startSize=23;labelBackgroundColor=none;fillColor=#A8DADC;strokeColor=#457B9D;fontColor=#1D3557;gradientColor=#FFFFFF;" parent="1" vertex="1">
          <mxGeometry x="-1110" y="432.5" width="120" height="85" as="geometry" />
        </mxCell>
        <mxCell id="J3J6T2Nlb2btmMFrzNH1-41" value="&lt;font style=&quot;font-size: 14px;&quot;&gt;Add IP&lt;/font&gt;" style="text;html=1;align=center;verticalAlign=middle;resizable=0;points=[];autosize=1;strokeColor=none;fillColor=none;labelBackgroundColor=none;fontColor=#1D3557;" parent="J3J6T2Nlb2btmMFrzNH1-27" vertex="1">
          <mxGeometry x="22" y="39" width="70" height="30" as="geometry" />
        </mxCell>
        <mxCell id="J3J6T2Nlb2btmMFrzNH1-28" value="1" style="swimlane;whiteSpace=wrap;html=1;rounded=1;startSize=23;labelBackgroundColor=none;fillColor=#A8DADC;strokeColor=#457B9D;fontColor=#1D3557;gradientColor=#FFFFFF;" parent="1" vertex="1">
          <mxGeometry x="-1040" y="297.5" width="160" height="85" as="geometry" />
        </mxCell>
        <mxCell id="J3J6T2Nlb2btmMFrzNH1-32" value="" style="endArrow=classic;html=1;rounded=0;exitX=0.25;exitY=1;exitDx=0;exitDy=0;entryX=0.5;entryY=0;entryDx=0;entryDy=0;labelBackgroundColor=none;strokeColor=#457B9D;fontColor=default;" parent="1" source="J3J6T2Nlb2btmMFrzNH1-28" target="J3J6T2Nlb2btmMFrzNH1-27" edge="1">
          <mxGeometry width="50" height="50" relative="1" as="geometry">
            <mxPoint x="-830" y="367.5" as="sourcePoint" />
            <mxPoint x="-780" y="317.5" as="targetPoint" />
            <Array as="points">
              <mxPoint x="-1000" y="407.5" />
              <mxPoint x="-1050" y="407.5" />
            </Array>
          </mxGeometry>
        </mxCell>
        <mxCell id="J3J6T2Nlb2btmMFrzNH1-33" value="" style="endArrow=classic;html=1;rounded=0;entryX=0.5;entryY=0;entryDx=0;entryDy=0;labelBackgroundColor=none;strokeColor=#457B9D;fontColor=default;" parent="1" edge="1">
          <mxGeometry width="50" height="50" relative="1" as="geometry">
            <mxPoint x="-50" y="210" as="sourcePoint" />
            <mxPoint x="-670" y="305.00000000000006" as="targetPoint" />
            <Array as="points">
              <mxPoint x="-50" y="230" />
              <mxPoint x="-50" y="250" />
              <mxPoint x="-670" y="250" />
            </Array>
          </mxGeometry>
        </mxCell>
        <mxCell id="J3J6T2Nlb2btmMFrzNH1-36" value="" style="endArrow=classic;html=1;rounded=0;exitX=0.25;exitY=1;exitDx=0;exitDy=0;entryX=0.458;entryY=-0.04;entryDx=0;entryDy=0;entryPerimeter=0;labelBackgroundColor=none;strokeColor=#457B9D;fontColor=default;" parent="1" source="J3J6T2Nlb2btmMFrzNH1-25" target="J3J6T2Nlb2btmMFrzNH1-24" edge="1">
          <mxGeometry width="50" height="50" relative="1" as="geometry">
            <mxPoint x="-576" y="374.51" as="sourcePoint" />
            <mxPoint x="-638" y="419.51" as="targetPoint" />
            <Array as="points">
              <mxPoint x="-690" y="412.5" />
              <mxPoint x="-745" y="412.5" />
            </Array>
          </mxGeometry>
        </mxCell>
        <mxCell id="J3J6T2Nlb2btmMFrzNH1-37" value="" style="endArrow=classic;html=1;rounded=0;exitX=0.75;exitY=1;exitDx=0;exitDy=0;entryX=0.5;entryY=0;entryDx=0;entryDy=0;labelBackgroundColor=none;strokeColor=#457B9D;fontColor=default;" parent="1" source="J3J6T2Nlb2btmMFrzNH1-28" target="J3J6T2Nlb2btmMFrzNH1-26" edge="1">
          <mxGeometry width="50" height="50" relative="1" as="geometry">
            <mxPoint x="-900" y="382.5" as="sourcePoint" />
            <mxPoint x="-820" y="427.5" as="targetPoint" />
            <Array as="points">
              <mxPoint x="-920" y="407.5" />
              <mxPoint x="-870" y="407.5" />
            </Array>
          </mxGeometry>
        </mxCell>
        <mxCell id="J3J6T2Nlb2btmMFrzNH1-38" value="" style="endArrow=classic;html=1;rounded=0;exitX=0.75;exitY=1;exitDx=0;exitDy=0;entryX=0.5;entryY=0;entryDx=0;entryDy=0;labelBackgroundColor=none;strokeColor=#457B9D;fontColor=default;" parent="1" source="J3J6T2Nlb2btmMFrzNH1-25" target="J3J6T2Nlb2btmMFrzNH1-23" edge="1">
          <mxGeometry width="50" height="50" relative="1" as="geometry">
            <mxPoint x="-348" y="377.01" as="sourcePoint" />
            <mxPoint x="-268" y="422.01" as="targetPoint" />
            <Array as="points">
              <mxPoint x="-610" y="410" />
              <mxPoint x="-560" y="410" />
            </Array>
          </mxGeometry>
        </mxCell>
        <mxCell id="J3J6T2Nlb2btmMFrzNH1-39" value="&lt;font style=&quot;font-size: 14px;&quot;&gt;Check Blacklisted IP&#39;s&lt;/font&gt;" style="text;html=1;align=center;verticalAlign=middle;resizable=0;points=[];autosize=1;strokeColor=none;fillColor=none;labelBackgroundColor=none;fontColor=#1D3557;" parent="1" vertex="1">
          <mxGeometry x="-1040" y="337.5" width="160" height="30" as="geometry" />
        </mxCell>
        <mxCell id="J3J6T2Nlb2btmMFrzNH1-45" value="&lt;span style=&quot;font-size: 14px; text-align: center; text-wrap-mode: nowrap;&quot;&gt;&amp;nbsp; &amp;nbsp; &amp;nbsp; &amp;nbsp;Whitelisted IP&#39;s Database&lt;/span&gt;" style="html=1;dashed=0;whiteSpace=wrap;shape=mxgraph.dfd.dataStoreID;align=left;spacingLeft=3;points=[[0,0],[0.5,0],[1,0],[0,0.5],[1,0.5],[0,1],[0.5,1],[1,1]];labelBackgroundColor=none;fillColor=#A8DADC;strokeColor=#457B9D;fontColor=#1D3557;gradientColor=#FFFFFF;gradientDirection=east;" parent="1" vertex="1">
          <mxGeometry x="-750" y="675" width="220" height="30" as="geometry" />
        </mxCell>
        <mxCell id="J3J6T2Nlb2btmMFrzNH1-47" value="" style="edgeStyle=orthogonalEdgeStyle;rounded=0;orthogonalLoop=1;jettySize=auto;html=1;exitX=0.5;exitY=1;exitDx=0;exitDy=0;labelBackgroundColor=none;strokeColor=#457B9D;fontColor=default;" parent="1" source="J3J6T2Nlb2btmMFrzNH1-25" edge="1">
          <mxGeometry relative="1" as="geometry">
            <mxPoint x="-460" y="382.5" as="sourcePoint" />
            <mxPoint x="-650" y="675" as="targetPoint" />
            <Array as="points">
              <mxPoint x="-650" y="675" />
            </Array>
          </mxGeometry>
        </mxCell>
        <mxCell id="J3J6T2Nlb2btmMFrzNH1-48" value="&lt;font style=&quot;font-size: 12px;&quot;&gt;Read IPs&lt;/font&gt;" style="edgeLabel;html=1;align=center;verticalAlign=middle;resizable=0;points=[];labelBackgroundColor=none;fontColor=#1D3557;" parent="J3J6T2Nlb2btmMFrzNH1-47" vertex="1" connectable="0">
          <mxGeometry relative="1" as="geometry">
            <mxPoint y="-9" as="offset" />
          </mxGeometry>
        </mxCell>
        <mxCell id="J3J6T2Nlb2btmMFrzNH1-49" value="&lt;span style=&quot;font-size: 14px; text-align: center; text-wrap-mode: nowrap;&quot;&gt;&amp;nbsp; &amp;nbsp; &amp;nbsp; &amp;nbsp;Blacklisted IP&#39;s Database&lt;/span&gt;" style="html=1;dashed=0;whiteSpace=wrap;shape=mxgraph.dfd.dataStoreID;align=left;spacingLeft=3;points=[[0,0],[0.5,0],[1,0],[0,0.5],[1,0.5],[0,1],[0.5,1],[1,1]];labelBackgroundColor=none;fillColor=#A8DADC;strokeColor=#457B9D;fontColor=#1D3557;gradientColor=#FFFFFF;gradientDirection=east;" parent="1" vertex="1">
          <mxGeometry x="-1070" y="675" width="220" height="30" as="geometry" />
        </mxCell>
        <mxCell id="J3J6T2Nlb2btmMFrzNH1-50" value="" style="edgeStyle=orthogonalEdgeStyle;rounded=0;orthogonalLoop=1;jettySize=auto;html=1;entryX=0.5;entryY=0;entryDx=0;entryDy=0;exitX=0.5;exitY=1;exitDx=0;exitDy=0;labelBackgroundColor=none;strokeColor=#457B9D;fontColor=default;" parent="1" source="J3J6T2Nlb2btmMFrzNH1-28" target="J3J6T2Nlb2btmMFrzNH1-49" edge="1">
          <mxGeometry relative="1" as="geometry">
            <mxPoint x="-1410" y="340" as="sourcePoint" />
            <mxPoint x="-1330" y="340" as="targetPoint" />
            <Array as="points">
              <mxPoint x="-960" y="572.5" />
            </Array>
          </mxGeometry>
        </mxCell>
        <mxCell id="J3J6T2Nlb2btmMFrzNH1-51" value="&lt;font style=&quot;font-size: 12px;&quot;&gt;Read IPs&lt;/font&gt;" style="edgeLabel;html=1;align=center;verticalAlign=middle;resizable=0;points=[];labelBackgroundColor=none;fontColor=#1D3557;" parent="J3J6T2Nlb2btmMFrzNH1-50" vertex="1" connectable="0">
          <mxGeometry relative="1" as="geometry">
            <mxPoint as="offset" />
          </mxGeometry>
        </mxCell>
        <mxCell id="J3J6T2Nlb2btmMFrzNH1-52" value="" style="edgeStyle=none;orthogonalLoop=1;jettySize=auto;html=1;rounded=0;exitX=0.5;exitY=1;exitDx=0;exitDy=0;labelBackgroundColor=none;strokeColor=#457B9D;fontColor=default;" parent="1" source="J3J6T2Nlb2btmMFrzNH1-27" edge="1">
          <mxGeometry width="100" relative="1" as="geometry">
            <mxPoint x="-1090" y="477.5" as="sourcePoint" />
            <mxPoint x="-1050" y="675" as="targetPoint" />
            <Array as="points">
              <mxPoint x="-1050" y="542.5" />
            </Array>
          </mxGeometry>
        </mxCell>
        <mxCell id="J3J6T2Nlb2btmMFrzNH1-54" value="&lt;font style=&quot;font-size: 12px;&quot;&gt;Write IP&lt;/font&gt;" style="edgeLabel;html=1;align=center;verticalAlign=middle;resizable=0;points=[];labelBackgroundColor=none;fontColor=#1D3557;" parent="J3J6T2Nlb2btmMFrzNH1-52" vertex="1" connectable="0">
          <mxGeometry relative="1" as="geometry">
            <mxPoint y="-10" as="offset" />
          </mxGeometry>
        </mxCell>
        <mxCell id="J3J6T2Nlb2btmMFrzNH1-53" value="" style="edgeStyle=none;orthogonalLoop=1;jettySize=auto;html=1;rounded=0;entryX=0.909;entryY=0;entryDx=0;entryDy=0;entryPerimeter=0;exitX=0.5;exitY=1;exitDx=0;exitDy=0;labelBackgroundColor=none;strokeColor=#457B9D;fontColor=default;" parent="1" source="J3J6T2Nlb2btmMFrzNH1-26" target="J3J6T2Nlb2btmMFrzNH1-49" edge="1">
          <mxGeometry width="100" relative="1" as="geometry">
            <mxPoint x="-810" y="527.5" as="sourcePoint" />
            <mxPoint x="-1294" y="367.4999999999999" as="targetPoint" />
            <Array as="points">
              <mxPoint x="-870" y="552.5" />
            </Array>
          </mxGeometry>
        </mxCell>
        <mxCell id="J3J6T2Nlb2btmMFrzNH1-55" value="Delete IP" style="edgeLabel;html=1;align=center;verticalAlign=middle;resizable=0;points=[];labelBackgroundColor=none;fontColor=#1D3557;" parent="J3J6T2Nlb2btmMFrzNH1-53" vertex="1" connectable="0">
          <mxGeometry relative="1" as="geometry">
            <mxPoint y="-9" as="offset" />
          </mxGeometry>
        </mxCell>
        <mxCell id="J3J6T2Nlb2btmMFrzNH1-56" value="" style="edgeStyle=none;orthogonalLoop=1;jettySize=auto;html=1;rounded=0;exitX=0.5;exitY=1;exitDx=0;exitDy=0;align=center;labelBackgroundColor=none;strokeColor=#457B9D;fontColor=default;" parent="1" source="J3J6T2Nlb2btmMFrzNH1-23" edge="1">
          <mxGeometry width="100" relative="1" as="geometry">
            <mxPoint x="-560.12" y="522.5" as="sourcePoint" />
            <mxPoint x="-560.12" y="675" as="targetPoint" />
            <Array as="points">
              <mxPoint x="-560.12" y="545" />
            </Array>
          </mxGeometry>
        </mxCell>
        <mxCell id="J3J6T2Nlb2btmMFrzNH1-57" value="&lt;font style=&quot;font-size: 12px;&quot;&gt;Delete IP&lt;/font&gt;" style="edgeLabel;html=1;align=center;verticalAlign=middle;resizable=0;points=[];labelBackgroundColor=none;fontColor=#1D3557;" parent="J3J6T2Nlb2btmMFrzNH1-56" vertex="1" connectable="0">
          <mxGeometry x="-0.2" y="10" relative="1" as="geometry">
            <mxPoint as="offset" />
          </mxGeometry>
        </mxCell>
        <mxCell id="J3J6T2Nlb2btmMFrzNH1-58" value="" style="edgeStyle=none;orthogonalLoop=1;jettySize=auto;html=1;rounded=0;exitX=0.5;exitY=1;exitDx=0;exitDy=0;labelBackgroundColor=none;strokeColor=#457B9D;fontColor=default;entryX=0.047;entryY=-0.013;entryDx=0;entryDy=0;entryPerimeter=0;" parent="1" source="J3J6T2Nlb2btmMFrzNH1-24" target="J3J6T2Nlb2btmMFrzNH1-45" edge="1">
          <mxGeometry width="100" relative="1" as="geometry">
            <mxPoint x="-1118" y="477.51" as="sourcePoint" />
            <mxPoint x="-740" y="569.5" as="targetPoint" />
            <Array as="points">
              <mxPoint x="-740" y="542.5" />
              <mxPoint x="-740" y="552.5" />
            </Array>
          </mxGeometry>
        </mxCell>
        <mxCell id="J3J6T2Nlb2btmMFrzNH1-59" value="&lt;font style=&quot;font-size: 12px;&quot;&gt;Write IP&lt;/font&gt;" style="edgeLabel;html=1;align=center;verticalAlign=middle;resizable=0;points=[];labelBackgroundColor=none;fontColor=#1D3557;" parent="J3J6T2Nlb2btmMFrzNH1-58" vertex="1" connectable="0">
          <mxGeometry relative="1" as="geometry">
            <mxPoint y="-10" as="offset" />
          </mxGeometry>
        </mxCell>
        <mxCell id="J3J6T2Nlb2btmMFrzNH1-60" value="5" style="swimlane;whiteSpace=wrap;html=1;rounded=1;startSize=23;labelBackgroundColor=none;fillColor=#A8DADC;strokeColor=#457B9D;fontColor=#1D3557;gradientColor=#FFFFFF;" parent="1" vertex="1">
          <mxGeometry x="140" y="297.5" width="160" height="85" as="geometry" />
        </mxCell>
        <mxCell id="J3J6T2Nlb2btmMFrzNH1-67" value="&lt;font style=&quot;font-size: 14px;&quot;&gt;Check Logs&lt;/font&gt;" style="text;html=1;align=center;verticalAlign=middle;resizable=0;points=[];autosize=1;strokeColor=none;fillColor=none;labelBackgroundColor=none;fontColor=#1D3557;" parent="J3J6T2Nlb2btmMFrzNH1-60" vertex="1">
          <mxGeometry x="30" y="32.5" width="100" height="30" as="geometry" />
        </mxCell>
        <mxCell id="J3J6T2Nlb2btmMFrzNH1-63" value="" style="endArrow=classic;html=1;rounded=0;exitX=0.5;exitY=1;exitDx=0;exitDy=0;labelBackgroundColor=none;strokeColor=#457B9D;fontColor=default;entryX=0.145;entryY=0.01;entryDx=0;entryDy=0;entryPerimeter=0;" parent="1" source="J3J6T2Nlb2btmMFrzNH1-60" target="J3J6T2Nlb2btmMFrzNH1-15" edge="1">
          <mxGeometry width="50" height="50" relative="1" as="geometry">
            <mxPoint x="202.25" y="382.5" as="sourcePoint" />
            <mxPoint x="350" y="560" as="targetPoint" />
            <Array as="points">
              <mxPoint x="220" y="480" />
              <mxPoint x="260" y="480" />
              <mxPoint x="350" y="480" />
            </Array>
          </mxGeometry>
        </mxCell>
        <mxCell id="J3J6T2Nlb2btmMFrzNH1-64" value="Read Logs" style="edgeLabel;html=1;align=center;verticalAlign=middle;resizable=0;points=[];rotation=0;labelBackgroundColor=none;fontColor=#1D3557;" parent="J3J6T2Nlb2btmMFrzNH1-63" vertex="1" connectable="0">
          <mxGeometry relative="1" as="geometry">
            <mxPoint y="-9" as="offset" />
          </mxGeometry>
        </mxCell>
        <mxCell id="J3J6T2Nlb2btmMFrzNH1-65" value="" style="endArrow=classic;html=1;rounded=0;labelBackgroundColor=none;strokeColor=#457B9D;fontColor=default;" parent="1" edge="1">
          <mxGeometry width="50" height="50" relative="1" as="geometry">
            <mxPoint y="210" as="sourcePoint" />
            <mxPoint x="220" y="297" as="targetPoint" />
            <Array as="points">
              <mxPoint y="247" />
              <mxPoint y="257" />
              <mxPoint x="220" y="257" />
            </Array>
          </mxGeometry>
        </mxCell>
        <mxCell id="J3J6T2Nlb2btmMFrzNH1-66" value="" style="endArrow=classic;html=1;rounded=0;entryX=0.5;entryY=0;entryDx=0;entryDy=0;exitX=0.75;exitY=1;exitDx=0;exitDy=0;labelBackgroundColor=none;strokeColor=#457B9D;fontColor=default;" parent="1" source="J3J6T2Nlb2btmMFrzNH1-2" target="J3J6T2Nlb2btmMFrzNH1-13" edge="1">
          <mxGeometry width="50" height="50" relative="1" as="geometry">
            <mxPoint x="270" y="230" as="sourcePoint" />
            <mxPoint x="410" y="293" as="targetPoint" />
            <Array as="points">
              <mxPoint x="20" y="240" />
              <mxPoint x="170" y="240" />
              <mxPoint x="330" y="240" />
              <mxPoint x="585" y="240" />
            </Array>
          </mxGeometry>
        </mxCell>
        <mxCell id="J3J6T2Nlb2btmMFrzNH1-68" value="10" style="swimlane;whiteSpace=wrap;html=1;rounded=1;startSize=23;labelBackgroundColor=none;fillColor=#A8DADC;strokeColor=#457B9D;fontColor=#1D3557;gradientColor=#FFFFFF;" parent="1" vertex="1">
          <mxGeometry x="1070" y="297.5" width="160" height="85" as="geometry" />
        </mxCell>
        <mxCell id="J3J6T2Nlb2btmMFrzNH1-69" value="&lt;font style=&quot;font-size: 14px;&quot;&gt;Logout&lt;/font&gt;" style="text;html=1;align=center;verticalAlign=middle;resizable=0;points=[];autosize=1;strokeColor=none;fillColor=none;labelBackgroundColor=none;fontColor=#1D3557;" parent="J3J6T2Nlb2btmMFrzNH1-68" vertex="1">
          <mxGeometry x="47" y="32.5" width="70" height="30" as="geometry" />
        </mxCell>
        <mxCell id="J3J6T2Nlb2btmMFrzNH1-70" value="" style="endArrow=classic;html=1;rounded=0;entryX=0.5;entryY=0;entryDx=0;entryDy=0;labelBackgroundColor=none;strokeColor=#457B9D;fontColor=default;" parent="1" edge="1">
          <mxGeometry width="50" height="50" relative="1" as="geometry">
            <mxPoint x="50" y="210" as="sourcePoint" />
            <mxPoint x="1150" y="297.5" as="targetPoint" />
            <Array as="points">
              <mxPoint x="390" y="210" />
              <mxPoint x="580" y="210" />
              <mxPoint x="790" y="210" />
              <mxPoint x="1150" y="210" />
            </Array>
          </mxGeometry>
        </mxCell>
        <mxCell id="kPvUlYXXvgPYuYJNT18Q-13" style="edgeStyle=orthogonalEdgeStyle;rounded=0;orthogonalLoop=1;jettySize=auto;html=1;exitX=0.5;exitY=1;exitDx=0;exitDy=0;entryX=0.5;entryY=0;entryDx=0;entryDy=0;strokeColor=#457B9D;" parent="1" source="kPvUlYXXvgPYuYJNT18Q-3" target="kPvUlYXXvgPYuYJNT18Q-11" edge="1">
          <mxGeometry relative="1" as="geometry" />
        </mxCell>
        <mxCell id="PZYcjQ5eOafzSe-c74F2-8" value="&lt;span style=&quot;color: rgb(29, 53, 87);&quot;&gt;Read Agents&lt;/span&gt;" style="edgeLabel;html=1;align=center;verticalAlign=middle;resizable=0;points=[];" parent="kPvUlYXXvgPYuYJNT18Q-13" vertex="1" connectable="0">
          <mxGeometry x="0.0062" relative="1" as="geometry">
            <mxPoint as="offset" />
          </mxGeometry>
        </mxCell>
        <mxCell id="kPvUlYXXvgPYuYJNT18Q-3" value="8" style="swimlane;whiteSpace=wrap;html=1;rounded=1;startSize=23;labelBackgroundColor=none;fillColor=#A8DADC;strokeColor=#457B9D;fontColor=#1D3557;gradientColor=#ffffff;gradientDirection=south;glass=0;" parent="1" vertex="1">
          <mxGeometry x="690" y="297.5" width="160" height="85" as="geometry" />
        </mxCell>
        <mxCell id="kPvUlYXXvgPYuYJNT18Q-4" value="&lt;font style=&quot;font-size: 14px;&quot;&gt;View Agents&lt;/font&gt;" style="text;html=1;align=center;verticalAlign=middle;resizable=0;points=[];autosize=1;strokeColor=none;fillColor=none;labelBackgroundColor=none;fontColor=#1D3557;" parent="kPvUlYXXvgPYuYJNT18Q-3" vertex="1">
          <mxGeometry x="32" y="32.5" width="100" height="30" as="geometry" />
        </mxCell>
        <mxCell id="kPvUlYXXvgPYuYJNT18Q-5" value="9" style="swimlane;whiteSpace=wrap;html=1;rounded=1;startSize=23;labelBackgroundColor=none;fillColor=#A8DADC;strokeColor=#457B9D;fontColor=#1D3557;gradientColor=#ffffff;gradientDirection=south;glass=0;" parent="1" vertex="1">
          <mxGeometry x="880" y="297.5" width="160" height="85" as="geometry" />
        </mxCell>
        <mxCell id="kPvUlYXXvgPYuYJNT18Q-6" value="&lt;font style=&quot;font-size: 14px;&quot;&gt;View Wazuh Alerts&lt;/font&gt;" style="text;html=1;align=center;verticalAlign=middle;resizable=0;points=[];autosize=1;strokeColor=none;fillColor=none;labelBackgroundColor=none;fontColor=#1D3557;" parent="kPvUlYXXvgPYuYJNT18Q-5" vertex="1">
          <mxGeometry x="12" y="32.5" width="140" height="30" as="geometry" />
        </mxCell>
        <mxCell id="kPvUlYXXvgPYuYJNT18Q-7" style="edgeStyle=orthogonalEdgeStyle;rounded=0;orthogonalLoop=1;jettySize=auto;html=1;entryX=0.5;entryY=0;entryDx=0;entryDy=0;fillColor=#6666FF;strokeColor=#457B9D;" parent="1" target="kPvUlYXXvgPYuYJNT18Q-3" edge="1">
          <mxGeometry relative="1" as="geometry">
            <mxPoint x="30" y="210" as="sourcePoint" />
            <mxPoint x="760.2399999999998" y="316.155" as="targetPoint" />
            <Array as="points">
              <mxPoint x="30" y="230" />
              <mxPoint x="770" y="230" />
            </Array>
          </mxGeometry>
        </mxCell>
        <mxCell id="kPvUlYXXvgPYuYJNT18Q-11" value="&lt;font style=&quot;font-size: 14px;&quot;&gt;&lt;span style=&quot;white-space: pre;&quot;&gt;&#x9;&lt;/span&gt;Agent&amp;nbsp;Database&lt;/font&gt;" style="html=1;dashed=0;whiteSpace=wrap;shape=mxgraph.dfd.dataStoreID;align=left;spacingLeft=3;points=[[0,0],[0.5,0],[1,0],[0,0.5],[1,0.5],[0,1],[0.5,1],[1,1]];labelBackgroundColor=none;fillColor=#A8DADC;strokeColor=#457B9D;fontColor=#1D3557;gradientColor=#FFFFFF;gradientDirection=east;" parent="1" vertex="1">
          <mxGeometry x="697.5" y="680" width="145" height="30" as="geometry" />
        </mxCell>
        <mxCell id="kPvUlYXXvgPYuYJNT18Q-12" value="&lt;font style=&quot;font-size: 14px;&quot;&gt;&lt;span style=&quot;white-space: pre;&quot;&gt;&#x9;&lt;/span&gt;&lt;span style=&quot;text-align: center; text-wrap-mode: nowrap;&quot;&gt;&amp;nbsp;Wazuh Alerts&lt;/span&gt;&amp;nbsp;Logs&amp;nbsp;&lt;/font&gt;" style="html=1;dashed=0;whiteSpace=wrap;shape=mxgraph.dfd.dataStoreID;align=left;spacingLeft=3;points=[[0,0],[0.5,0],[1,0],[0,0.5],[1,0.5],[0,1],[0.5,1],[1,1]];labelBackgroundColor=none;fillColor=#A8DADC;strokeColor=#457B9D;fontColor=#1D3557;gradientColor=#FFFFFF;gradientDirection=east;" parent="1" vertex="1">
          <mxGeometry x="900" y="677.5" width="208" height="35" as="geometry" />
        </mxCell>
        <mxCell id="kPvUlYXXvgPYuYJNT18Q-14" style="edgeStyle=orthogonalEdgeStyle;rounded=0;orthogonalLoop=1;jettySize=auto;html=1;exitX=0.5;exitY=1;exitDx=0;exitDy=0;entryX=0.288;entryY=-0.003;entryDx=0;entryDy=0;entryPerimeter=0;strokeColor=#457B9D;" parent="1" source="kPvUlYXXvgPYuYJNT18Q-5" target="kPvUlYXXvgPYuYJNT18Q-12" edge="1">
          <mxGeometry relative="1" as="geometry">
            <mxPoint x="960" y="560" as="targetPoint" />
          </mxGeometry>
        </mxCell>
        <mxCell id="PZYcjQ5eOafzSe-c74F2-11" value="&lt;span style=&quot;color: rgb(29, 53, 87); background-color: rgb(255, 255, 255);&quot;&gt;Read Wazuh Alerts&lt;/span&gt;" style="edgeLabel;html=1;align=center;verticalAlign=middle;resizable=0;points=[];" parent="kPvUlYXXvgPYuYJNT18Q-14" vertex="1" connectable="0">
          <mxGeometry x="-0.0287" relative="1" as="geometry">
            <mxPoint as="offset" />
          </mxGeometry>
        </mxCell>
        <mxCell id="PZYcjQ5eOafzSe-c74F2-1" value="6" style="swimlane;whiteSpace=wrap;html=1;rounded=1;startSize=23;labelBackgroundColor=none;fillColor=#A8DADC;strokeColor=#457B9D;fontColor=#1D3557;gradientColor=#FFFFFF;" parent="1" vertex="1">
          <mxGeometry x="320" y="297.5" width="160" height="85" as="geometry" />
        </mxCell>
        <mxCell id="PZYcjQ5eOafzSe-c74F2-2" value="&lt;font style=&quot;font-size: 14px;&quot;&gt;Search Logs&lt;/font&gt;" style="text;html=1;align=center;verticalAlign=middle;resizable=0;points=[];autosize=1;strokeColor=none;fillColor=none;labelBackgroundColor=none;fontColor=#1D3557;" parent="PZYcjQ5eOafzSe-c74F2-1" vertex="1">
          <mxGeometry x="30" y="32.5" width="100" height="30" as="geometry" />
        </mxCell>
        <mxCell id="PZYcjQ5eOafzSe-c74F2-4" style="edgeStyle=orthogonalEdgeStyle;rounded=0;orthogonalLoop=1;jettySize=auto;html=1;exitX=0.5;exitY=1;exitDx=0;exitDy=0;entryX=0.382;entryY=-0.011;entryDx=0;entryDy=0;entryPerimeter=0;strokeColor=#457B9D;" parent="1" source="PZYcjQ5eOafzSe-c74F2-1" target="J3J6T2Nlb2btmMFrzNH1-15" edge="1">
          <mxGeometry relative="1" as="geometry" />
        </mxCell>
        <mxCell id="PZYcjQ5eOafzSe-c74F2-5" value="&lt;font style=&quot;color: rgb(0, 0, 102);&quot;&gt;Search Logs&lt;/font&gt;" style="edgeLabel;html=1;align=center;verticalAlign=middle;resizable=0;points=[];" parent="PZYcjQ5eOafzSe-c74F2-4" vertex="1" connectable="0">
          <mxGeometry x="-0.16" y="-1" relative="1" as="geometry">
            <mxPoint as="offset" />
          </mxGeometry>
        </mxCell>
        <mxCell id="PZYcjQ5eOafzSe-c74F2-12" value="4.3" style="swimlane;whiteSpace=wrap;html=1;rounded=1;startSize=23;labelBackgroundColor=none;fillColor=#A8DADC;strokeColor=#457B9D;fontColor=#1D3557;gradientColor=#FFFFFF;" parent="1" vertex="1">
          <mxGeometry x="10" y="427.5" width="120" height="85" as="geometry" />
        </mxCell>
        <mxCell id="PZYcjQ5eOafzSe-c74F2-13" value="&lt;span style=&quot;font-size: 14px;&quot;&gt;Delete User&lt;/span&gt;" style="text;html=1;align=center;verticalAlign=middle;resizable=0;points=[];autosize=1;strokeColor=none;fillColor=none;labelBackgroundColor=none;fontColor=#1D3557;" parent="PZYcjQ5eOafzSe-c74F2-12" vertex="1">
          <mxGeometry x="10" y="38" width="100" height="30" as="geometry" />
        </mxCell>
        <mxCell id="PZYcjQ5eOafzSe-c74F2-14" value="4.1" style="swimlane;whiteSpace=wrap;html=1;rounded=1;startSize=23;labelBackgroundColor=none;fillColor=#b0e3e6;strokeColor=#0e8088;gradientColor=#FFFFFF;" parent="1" vertex="1">
          <mxGeometry x="-170" y="427.5" width="120" height="85" as="geometry" />
        </mxCell>
        <mxCell id="PZYcjQ5eOafzSe-c74F2-15" value="&lt;font style=&quot;font-size: 14px;&quot;&gt;Add Users&lt;/font&gt;" style="text;html=1;align=center;verticalAlign=middle;resizable=0;points=[];autosize=1;strokeColor=none;fillColor=none;labelBackgroundColor=none;fontColor=#1D3557;" parent="PZYcjQ5eOafzSe-c74F2-14" vertex="1">
          <mxGeometry x="16" y="39" width="90" height="30" as="geometry" />
        </mxCell>
        <mxCell id="PZYcjQ5eOafzSe-c74F2-49" style="edgeStyle=orthogonalEdgeStyle;rounded=0;orthogonalLoop=1;jettySize=auto;html=1;exitX=0.5;exitY=1;exitDx=0;exitDy=0;entryX=0.5;entryY=0;entryDx=0;entryDy=0;strokeColor=#4880A4;" parent="1" source="PZYcjQ5eOafzSe-c74F2-16" target="PZYcjQ5eOafzSe-c74F2-47" edge="1">
          <mxGeometry relative="1" as="geometry" />
        </mxCell>
        <mxCell id="PZYcjQ5eOafzSe-c74F2-16" value="4" style="swimlane;whiteSpace=wrap;html=1;rounded=1;startSize=23;labelBackgroundColor=none;fillColor=#A8DADC;strokeColor=#457B9D;fontColor=#1D3557;gradientColor=#FFFFFF;" parent="1" vertex="1">
          <mxGeometry x="-100" y="300" width="160" height="85" as="geometry" />
        </mxCell>
        <mxCell id="PZYcjQ5eOafzSe-c74F2-17" value="&lt;span style=&quot;font-size: 14px;&quot;&gt;User Management&lt;/span&gt;" style="text;html=1;align=center;verticalAlign=middle;resizable=0;points=[];autosize=1;strokeColor=none;fillColor=none;labelBackgroundColor=none;fontColor=#1D3557;" parent="PZYcjQ5eOafzSe-c74F2-16" vertex="1">
          <mxGeometry x="10" y="40" width="140" height="30" as="geometry" />
        </mxCell>
        <mxCell id="PZYcjQ5eOafzSe-c74F2-18" value="3.3" style="swimlane;whiteSpace=wrap;html=1;rounded=1;startSize=23;movable=1;resizable=1;rotatable=1;deletable=1;editable=1;locked=0;connectable=1;labelBackgroundColor=none;fillColor=#A8DADC;strokeColor=#457B9D;fontColor=#1D3557;gradientColor=#FFFFFF;" parent="1" vertex="1">
          <mxGeometry x="-310" y="427.5" width="130" height="85" as="geometry" />
        </mxCell>
        <mxCell id="PZYcjQ5eOafzSe-c74F2-19" value="&lt;font style=&quot;font-size: 14px;&quot;&gt;Deactivate Agents&lt;/font&gt;" style="text;html=1;align=center;verticalAlign=middle;resizable=1;points=[];autosize=1;strokeColor=none;fillColor=none;movable=1;rotatable=1;deletable=1;editable=1;locked=0;connectable=1;labelBackgroundColor=none;fontColor=#1D3557;" parent="PZYcjQ5eOafzSe-c74F2-18" vertex="1">
          <mxGeometry y="39" width="130" height="30" as="geometry" />
        </mxCell>
        <mxCell id="PZYcjQ5eOafzSe-c74F2-20" value="3.1" style="swimlane;whiteSpace=wrap;html=1;rounded=1;startSize=23;labelBackgroundColor=none;fillColor=#A8DADC;strokeColor=#457B9D;fontColor=#1D3557;gradientColor=#FFFFFF;" parent="1" vertex="1">
          <mxGeometry x="-480" y="427.5" width="127" height="85" as="geometry" />
        </mxCell>
        <mxCell id="PZYcjQ5eOafzSe-c74F2-21" value="&lt;span style=&quot;font-size: 14px;&quot;&gt;Add/Activate Agent&lt;/span&gt;" style="text;html=1;align=center;verticalAlign=middle;resizable=0;points=[];autosize=1;strokeColor=none;fillColor=none;labelBackgroundColor=none;fontColor=#1D3557;" parent="PZYcjQ5eOafzSe-c74F2-20" vertex="1">
          <mxGeometry x="-6.5" y="39" width="140" height="30" as="geometry" />
        </mxCell>
        <mxCell id="PZYcjQ5eOafzSe-c74F2-45" style="edgeStyle=orthogonalEdgeStyle;rounded=0;orthogonalLoop=1;jettySize=auto;html=1;exitX=0.5;exitY=1;exitDx=0;exitDy=0;entryX=0.5;entryY=0;entryDx=0;entryDy=0;strokeColor=#4880A4;" parent="1" source="PZYcjQ5eOafzSe-c74F2-22" target="PZYcjQ5eOafzSe-c74F2-42" edge="1">
          <mxGeometry relative="1" as="geometry" />
        </mxCell>
        <mxCell id="PZYcjQ5eOafzSe-c74F2-22" value="3" style="swimlane;whiteSpace=wrap;html=1;rounded=1;startSize=23;labelBackgroundColor=none;fillColor=#A8DADC;strokeColor=#457B9D;fontColor=#1D3557;gradientColor=#FFFFFF;" parent="1" vertex="1">
          <mxGeometry x="-410" y="292.5" width="160" height="85" as="geometry" />
        </mxCell>
        <mxCell id="PZYcjQ5eOafzSe-c74F2-23" value="" style="endArrow=classic;html=1;rounded=0;entryX=0.477;entryY=-0.011;entryDx=0;entryDy=0;labelBackgroundColor=none;strokeColor=#457B9D;fontColor=default;entryPerimeter=0;exitX=0.25;exitY=1;exitDx=0;exitDy=0;" parent="1" source="PZYcjQ5eOafzSe-c74F2-22" edge="1">
          <mxGeometry width="50" height="50" relative="1" as="geometry">
            <mxPoint x="-371" y="380" as="sourcePoint" />
            <mxPoint x="-419.42100000000005" y="427.56500000000005" as="targetPoint" />
            <Array as="points">
              <mxPoint x="-370" y="401" />
              <mxPoint x="-420" y="401" />
            </Array>
          </mxGeometry>
        </mxCell>
        <mxCell id="PZYcjQ5eOafzSe-c74F2-24" value="" style="endArrow=classic;html=1;rounded=0;exitX=0.25;exitY=1;exitDx=0;exitDy=0;entryX=0.458;entryY=-0.04;entryDx=0;entryDy=0;entryPerimeter=0;labelBackgroundColor=none;strokeColor=#457B9D;fontColor=default;" parent="1" source="PZYcjQ5eOafzSe-c74F2-16" target="PZYcjQ5eOafzSe-c74F2-14" edge="1">
          <mxGeometry width="50" height="50" relative="1" as="geometry">
            <mxPoint x="54" y="369.51" as="sourcePoint" />
            <mxPoint x="-8" y="414.51" as="targetPoint" />
            <Array as="points">
              <mxPoint x="-60" y="407.5" />
              <mxPoint x="-115" y="407.5" />
            </Array>
          </mxGeometry>
        </mxCell>
        <mxCell id="PZYcjQ5eOafzSe-c74F2-25" value="" style="endArrow=classic;html=1;rounded=0;exitX=0.75;exitY=1;exitDx=0;exitDy=0;entryX=0.5;entryY=0;entryDx=0;entryDy=0;labelBackgroundColor=none;strokeColor=#457B9D;fontColor=default;" parent="1" source="PZYcjQ5eOafzSe-c74F2-22" target="PZYcjQ5eOafzSe-c74F2-18" edge="1">
          <mxGeometry width="50" height="50" relative="1" as="geometry">
            <mxPoint x="-270" y="377.5" as="sourcePoint" />
            <mxPoint x="-190" y="422.5" as="targetPoint" />
            <Array as="points">
              <mxPoint x="-290" y="400" />
              <mxPoint x="-245" y="400" />
            </Array>
          </mxGeometry>
        </mxCell>
        <mxCell id="PZYcjQ5eOafzSe-c74F2-26" value="" style="endArrow=classic;html=1;rounded=0;exitX=0.75;exitY=1;exitDx=0;exitDy=0;entryX=0.5;entryY=0;entryDx=0;entryDy=0;labelBackgroundColor=none;strokeColor=#457B9D;fontColor=default;" parent="1" source="PZYcjQ5eOafzSe-c74F2-16" target="PZYcjQ5eOafzSe-c74F2-12" edge="1">
          <mxGeometry width="50" height="50" relative="1" as="geometry">
            <mxPoint x="132" y="374.51" as="sourcePoint" />
            <mxPoint x="212" y="419.51" as="targetPoint" />
            <Array as="points">
              <mxPoint x="20" y="407.5" />
              <mxPoint x="70" y="407.5" />
            </Array>
          </mxGeometry>
        </mxCell>
        <mxCell id="PZYcjQ5eOafzSe-c74F2-27" value="&lt;span style=&quot;font-size: 14px;&quot;&gt;Agent Management&lt;/span&gt;" style="text;html=1;align=center;verticalAlign=middle;resizable=0;points=[];autosize=1;strokeColor=none;fillColor=none;labelBackgroundColor=none;fontColor=#1D3557;" parent="1" vertex="1">
          <mxGeometry x="-405" y="332.5" width="150" height="30" as="geometry" />
        </mxCell>
        <mxCell id="PZYcjQ5eOafzSe-c74F2-28" value="&lt;span style=&quot;font-size: 14px; text-align: center; text-wrap-mode: nowrap;&quot;&gt;&amp;nbsp; &amp;nbsp; &amp;nbsp; &amp;nbsp; &amp;nbsp; &amp;nbsp; Users Database&lt;/span&gt;" style="html=1;dashed=0;whiteSpace=wrap;shape=mxgraph.dfd.dataStoreID;align=left;spacingLeft=3;points=[[0,0],[0.5,0],[1,0],[0,0.5],[1,0.5],[0,1],[0.5,1],[1,1]];labelBackgroundColor=none;fillColor=#A8DADC;strokeColor=#457B9D;fontColor=#1D3557;gradientColor=#FFFFFF;gradientDirection=east;" parent="1" vertex="1">
          <mxGeometry x="-130" y="675" width="220" height="30" as="geometry" />
        </mxCell>
        <mxCell id="PZYcjQ5eOafzSe-c74F2-29" value="" style="edgeStyle=orthogonalEdgeStyle;rounded=0;orthogonalLoop=1;jettySize=auto;html=1;labelBackgroundColor=none;strokeColor=#457B9D;fontColor=default;exitX=0.5;exitY=1;exitDx=0;exitDy=0;entryX=0.5;entryY=0;entryDx=0;entryDy=0;" parent="1" source="PZYcjQ5eOafzSe-c74F2-47" target="PZYcjQ5eOafzSe-c74F2-28" edge="1">
          <mxGeometry relative="1" as="geometry">
            <mxPoint x="-20" y="600" as="sourcePoint" />
            <mxPoint x="-20" y="670" as="targetPoint" />
            <Array as="points" />
          </mxGeometry>
        </mxCell>
        <mxCell id="PZYcjQ5eOafzSe-c74F2-30" value="&lt;font style=&quot;font-size: 12px;&quot;&gt;Read Users&lt;/font&gt;" style="edgeLabel;html=1;align=center;verticalAlign=middle;resizable=0;points=[];labelBackgroundColor=none;fontColor=#1D3557;" parent="PZYcjQ5eOafzSe-c74F2-29" vertex="1" connectable="0">
          <mxGeometry relative="1" as="geometry">
            <mxPoint y="-9" as="offset" />
          </mxGeometry>
        </mxCell>
        <mxCell id="PZYcjQ5eOafzSe-c74F2-31" value="&lt;span style=&quot;font-size: 14px; text-align: center; text-wrap-mode: nowrap;&quot;&gt;&amp;nbsp; &amp;nbsp; &amp;nbsp; &amp;nbsp; &amp;nbsp; &amp;nbsp; Agents Database&lt;/span&gt;" style="html=1;dashed=0;whiteSpace=wrap;shape=mxgraph.dfd.dataStoreID;align=left;spacingLeft=3;points=[[0,0],[0.5,0],[1,0],[0,0.5],[1,0.5],[0,1],[0.5,1],[1,1]];labelBackgroundColor=none;fillColor=#A8DADC;strokeColor=#457B9D;fontColor=#1D3557;gradientColor=#FFFFFF;gradientDirection=east;" parent="1" vertex="1">
          <mxGeometry x="-440" y="675" width="220" height="30" as="geometry" />
        </mxCell>
        <mxCell id="PZYcjQ5eOafzSe-c74F2-32" value="" style="edgeStyle=orthogonalEdgeStyle;rounded=0;orthogonalLoop=1;jettySize=auto;html=1;labelBackgroundColor=none;strokeColor=#457B9D;fontColor=default;entryX=0.5;entryY=0;entryDx=0;entryDy=0;" parent="1" target="PZYcjQ5eOafzSe-c74F2-31" edge="1">
          <mxGeometry relative="1" as="geometry">
            <mxPoint x="-330.27" y="635.01" as="sourcePoint" />
            <mxPoint x="-330" y="670" as="targetPoint" />
            <Array as="points">
              <mxPoint x="-330" y="602" />
              <mxPoint x="-330" y="602" />
            </Array>
          </mxGeometry>
        </mxCell>
        <mxCell id="PZYcjQ5eOafzSe-c74F2-33" value="&lt;font style=&quot;font-size: 12px;&quot;&gt;Read Agents&lt;/font&gt;" style="edgeLabel;html=1;align=center;verticalAlign=middle;resizable=0;points=[];labelBackgroundColor=none;fontColor=#1D3557;" parent="PZYcjQ5eOafzSe-c74F2-32" vertex="1" connectable="0">
          <mxGeometry relative="1" as="geometry">
            <mxPoint as="offset" />
          </mxGeometry>
        </mxCell>
        <mxCell id="PZYcjQ5eOafzSe-c74F2-34" value="" style="edgeStyle=none;orthogonalLoop=1;jettySize=auto;html=1;rounded=0;labelBackgroundColor=none;strokeColor=#457B9D;fontColor=default;entryX=0.092;entryY=0.005;entryDx=0;entryDy=0;entryPerimeter=0;" parent="1" target="PZYcjQ5eOafzSe-c74F2-31" edge="1">
          <mxGeometry width="100" relative="1" as="geometry">
            <mxPoint x="-420" y="512" as="sourcePoint" />
            <mxPoint x="-420" y="672" as="targetPoint" />
            <Array as="points">
              <mxPoint x="-420" y="539.5" />
            </Array>
          </mxGeometry>
        </mxCell>
        <mxCell id="PZYcjQ5eOafzSe-c74F2-35" value="&lt;span style=&quot;font-size: 12px;&quot;&gt;Activate Agents&lt;/span&gt;" style="edgeLabel;html=1;align=center;verticalAlign=middle;resizable=0;points=[];labelBackgroundColor=none;fontColor=#1D3557;" parent="PZYcjQ5eOafzSe-c74F2-34" vertex="1" connectable="0">
          <mxGeometry relative="1" as="geometry">
            <mxPoint x="-20" y="-9" as="offset" />
          </mxGeometry>
        </mxCell>
        <mxCell id="PZYcjQ5eOafzSe-c74F2-36" value="" style="edgeStyle=none;orthogonalLoop=1;jettySize=auto;html=1;rounded=0;entryX=0.881;entryY=0.001;entryDx=0;entryDy=0;entryPerimeter=0;labelBackgroundColor=none;strokeColor=#457B9D;fontColor=default;exitX=0.5;exitY=1;exitDx=0;exitDy=0;" parent="1" source="PZYcjQ5eOafzSe-c74F2-18" target="PZYcjQ5eOafzSe-c74F2-31" edge="1">
          <mxGeometry width="100" relative="1" as="geometry">
            <mxPoint x="-240" y="520" as="sourcePoint" />
            <mxPoint x="-664" y="362.4999999999999" as="targetPoint" />
            <Array as="points" />
          </mxGeometry>
        </mxCell>
        <mxCell id="PZYcjQ5eOafzSe-c74F2-37" value="&lt;font style=&quot;font-size: 12px;&quot;&gt;Deactivate Agent&lt;/font&gt;" style="edgeLabel;html=1;align=center;verticalAlign=middle;resizable=0;points=[];labelBackgroundColor=none;fontColor=#1D3557;" parent="PZYcjQ5eOafzSe-c74F2-36" vertex="1" connectable="0">
          <mxGeometry relative="1" as="geometry">
            <mxPoint x="26" y="-9" as="offset" />
          </mxGeometry>
        </mxCell>
        <mxCell id="PZYcjQ5eOafzSe-c74F2-38" value="" style="edgeStyle=none;orthogonalLoop=1;jettySize=auto;html=1;rounded=0;exitX=0.5;exitY=1;exitDx=0;exitDy=0;align=center;labelBackgroundColor=none;strokeColor=#457B9D;fontColor=default;entryX=0.909;entryY=-0.007;entryDx=0;entryDy=0;entryPerimeter=0;" parent="1" source="PZYcjQ5eOafzSe-c74F2-12" target="PZYcjQ5eOafzSe-c74F2-28" edge="1">
          <mxGeometry width="100" relative="1" as="geometry">
            <mxPoint x="232" y="517.01" as="sourcePoint" />
            <mxPoint x="70" y="670" as="targetPoint" />
            <Array as="points">
              <mxPoint x="70" y="537.5" />
            </Array>
          </mxGeometry>
        </mxCell>
        <mxCell id="PZYcjQ5eOafzSe-c74F2-39" value="&lt;font style=&quot;font-size: 12px;&quot;&gt;Delete Users&lt;/font&gt;" style="edgeLabel;html=1;align=center;verticalAlign=middle;resizable=0;points=[];labelBackgroundColor=none;fontColor=#1D3557;" parent="PZYcjQ5eOafzSe-c74F2-38" vertex="1" connectable="0">
          <mxGeometry x="-0.2" y="10" relative="1" as="geometry">
            <mxPoint as="offset" />
          </mxGeometry>
        </mxCell>
        <mxCell id="PZYcjQ5eOafzSe-c74F2-40" value="" style="edgeStyle=none;orthogonalLoop=1;jettySize=auto;html=1;rounded=0;exitX=0.5;exitY=1;exitDx=0;exitDy=0;labelBackgroundColor=none;strokeColor=#457B9D;fontColor=default;entryX=0.091;entryY=-0.007;entryDx=0;entryDy=0;entryPerimeter=0;" parent="1" source="PZYcjQ5eOafzSe-c74F2-14" target="PZYcjQ5eOafzSe-c74F2-28" edge="1">
          <mxGeometry width="100" relative="1" as="geometry">
            <mxPoint x="-488" y="472.51" as="sourcePoint" />
            <mxPoint x="-110" y="669" as="targetPoint" />
            <Array as="points">
              <mxPoint x="-110" y="537.5" />
              <mxPoint x="-110" y="547.5" />
            </Array>
          </mxGeometry>
        </mxCell>
        <mxCell id="PZYcjQ5eOafzSe-c74F2-41" value="&lt;span style=&quot;font-size: 12px;&quot;&gt;Add Users&lt;/span&gt;" style="edgeLabel;html=1;align=center;verticalAlign=middle;resizable=0;points=[];labelBackgroundColor=none;fontColor=#1D3557;" parent="PZYcjQ5eOafzSe-c74F2-40" vertex="1" connectable="0">
          <mxGeometry relative="1" as="geometry">
            <mxPoint y="-10" as="offset" />
          </mxGeometry>
        </mxCell>
        <mxCell id="PZYcjQ5eOafzSe-c74F2-42" value="3.2" style="swimlane;whiteSpace=wrap;html=1;rounded=1;startSize=23;movable=1;resizable=1;rotatable=1;deletable=1;editable=1;locked=0;connectable=1;labelBackgroundColor=none;fillColor=#A8DADC;strokeColor=#457B9D;fontColor=#1D3557;gradientColor=#FFFFFF;" parent="1" vertex="1">
          <mxGeometry x="-390" y="517.5" width="120" height="85" as="geometry" />
        </mxCell>
        <mxCell id="PZYcjQ5eOafzSe-c74F2-43" value="&lt;font style=&quot;font-size: 14px;&quot;&gt;View Agents&lt;/font&gt;" style="text;html=1;align=center;verticalAlign=middle;resizable=1;points=[];autosize=1;strokeColor=none;fillColor=none;movable=1;rotatable=1;deletable=1;editable=1;locked=0;connectable=1;labelBackgroundColor=none;fontColor=#1D3557;" parent="PZYcjQ5eOafzSe-c74F2-42" vertex="1">
          <mxGeometry x="10" y="39" width="100" height="30" as="geometry" />
        </mxCell>
        <mxCell id="PZYcjQ5eOafzSe-c74F2-47" value="4.2" style="swimlane;whiteSpace=wrap;html=1;rounded=1;startSize=23;labelBackgroundColor=none;fillColor=#b0e3e6;strokeColor=#0e8088;gradientColor=#FFFFFF;" parent="1" vertex="1">
          <mxGeometry x="-80" y="517.5" width="120" height="85" as="geometry" />
        </mxCell>
        <mxCell id="PZYcjQ5eOafzSe-c74F2-48" value="&lt;span style=&quot;font-size: 14px;&quot;&gt;View Users&lt;/span&gt;" style="text;html=1;align=center;verticalAlign=middle;resizable=0;points=[];autosize=1;strokeColor=none;fillColor=none;labelBackgroundColor=none;fontColor=#1D3557;" parent="PZYcjQ5eOafzSe-c74F2-47" vertex="1">
          <mxGeometry x="16" y="39" width="90" height="30" as="geometry" />
        </mxCell>
      </root>
    </mxGraphModel>
  </diagram>
</mxfile>
